<?xml version="1.0" standalone="no"?><!DOCTYPE svg PUBLIC "-//W3C//DTD SVG 1.1//EN" "http://www.w3.org/Graphics/SVG/1.1/DTD/svg11.dtd"><svg t="1558422067390" class="icon" style="" viewBox="0 0 1024 1024" version="1.1" xmlns="http://www.w3.org/2000/svg" p-id="1082" xmlns:xlink="http://www.w3.org/1999/xlink" width="200" height="200"><defs><style type="text/css"></style></defs><path d="M507.1454816 436.7549632c-38.83614827 0-72.81777813 31.55437013-72.81777813 72.81777707 0 38.83614827 31.55437013 72.81777813 72.81777813 72.81777813s72.81777813-31.55437013 72.81777813-72.81777813c0-38.83614827-31.55437013-72.81777813-72.81777813-72.81777707z" fill="#fc833f" p-id="1083"></path><path d="M507.1454816 33.8299264c-262.144 0-475.74281493 213.59881493-475.74281493 475.74281387S245.0014816 985.3155552 507.1454816 985.3155552s475.74281493-213.59881493 475.74281493-475.74281493C985.3155552 247.42874027 771.71674027 33.8299264 507.1454816 33.8299264z m216.0260736 283.98933333l-97.09037013 296.1256288c-2.42725973 7.28177813-9.7090368 14.5635552-16.99081494 16.99081494l-296.12562986 97.09037013c-7.28177813 2.42725973-16.99081493 2.42725973-19.4180736-2.42725867-4.8545184-4.8545184-7.28177813-12.13629653-2.42725974-19.41807466l97.0903712-296.1256288c2.42725973-7.28177813 9.7090368-14.5635552 16.99081494-16.99081494l296.1256288-97.09037013c7.28177813-2.42725973 16.99081493-2.42725973 19.41807466 2.42725867 4.8545184 4.8545184 7.28177813 12.13629653 2.42725867 19.41807466z" fill="#fc833f" p-id="1084"></path></svg>