<?xml version="1.0" standalone="no"?><!DOCTYPE svg PUBLIC "-//W3C//DTD SVG 1.1//EN" "http://www.w3.org/Graphics/SVG/1.1/DTD/svg11.dtd"><svg t="1558420429955" class="icon" style="" viewBox="0 0 1024 1024" version="1.1" xmlns="http://www.w3.org/2000/svg" p-id="5513" xmlns:xlink="http://www.w3.org/1999/xlink" width="200" height="200"><defs><style type="text/css"></style></defs><path d="M378.6 313.3c0 58.2-47.2 105.4-105.4 105.4s-105.4-47.2-105.4-105.4S215 207.9 273.2 207.9s105.4 47.2 105.4 105.4" fill="#23ADE5" p-id="5514"></path><path d="M584.5 418.7c90.6 0 164-73.4 164-164s-73.4-164-164-164-164 73.4-164 164 73.4 164 164 164zM873.8 527.5l-72.6 41.9v-55.3c0-45.2-37-82.1-82.1-82.1H148.3c-45.2 0-82.1 37-82.1 82.1v337.1c0 45.2 37 82.1 82.1 82.1H719c45.2 0 82.1-37 82.1-82.1V824l72.6 41.9c38.9 22.5 87.6-5.6 87.6-50.6V578c0-44.9-48.6-73-87.5-50.5z" fill="#48CFE5" p-id="5515"></path><path d="M415.8 582.8l141.7 81.8c18.7 10.8 18.7 37.9 0 48.7l-141.7 81.8c-18.7 10.8-42.2-2.7-42.2-24.4V607.1c0.1-21.6 23.5-35.1 42.2-24.3" fill="#FDDE80" p-id="5516"></path></svg>