<?xml version="1.0" standalone="no"?><!DOCTYPE svg PUBLIC "-//W3C//DTD SVG 1.1//EN" "http://www.w3.org/Graphics/SVG/1.1/DTD/svg11.dtd"><svg t="1557469897926" class="icon" style="" viewBox="0 0 1024 1024" version="1.1" xmlns="http://www.w3.org/2000/svg" p-id="5763" xmlns:xlink="http://www.w3.org/1999/xlink" width="200" height="200"><defs><style type="text/css"></style></defs><path d="M254.094204 888.715204 105.38434 479.399307 95.298022 505.547191 531.981478 274.863088 511.246884 274.415218 927.896762 518.087563 919.147567 491.063287 823.569182 707.765783C818.814532 718.545884 823.699125 731.13929 834.479226 735.893939 845.259328 740.648591 857.852732 735.763998 862.607381 724.983895L958.185766 508.281402C962.562163 498.358908 958.797909 486.731985 949.436572 481.257126L532.786694 237.584782C526.417653 233.85993 518.576041 233.69055 512.0521 237.136912L75.368645 467.821013C65.95003 472.796529 61.644922 483.957137 65.282327 493.968898L213.992191 903.284796C218.015472 914.35866 230.254127 920.074289 241.327993 916.051006 252.401858 912.027725 258.117485 899.789071 254.094204 888.715204L254.094204 888.715204Z" p-id="5764"></path><path d="M501.333333 277.333333 501.333333 853.333333C501.333333 865.115407 510.884593 874.666667 522.666667 874.666667 534.44874 874.666667 544 865.115407 544 853.333333L544 277.333333C544 265.551259 534.44874 256 522.666667 256 510.884593 256 501.333333 265.551259 501.333333 277.333333L501.333333 277.333333Z" p-id="5765"></path><path d="M234.666667 403.821225 234.666667 192 213.30699 213.333317 810.640322 214.070941 789.333333 192.737624 789.333333 426.666667C789.333333 438.44874 798.884593 448 810.666667 448 822.44874 448 832 438.44874 832 426.666667L832 192.737624C832 180.965836 822.464789 171.418844 810.693011 171.404307L213.359677 170.666683C201.567322 170.652121 192 180.207636 192 192L192 403.821225C192 415.603298 201.551259 425.154558 213.333333 425.154558 225.115408 425.154558 234.666667 415.603298 234.666667 403.821225L234.666667 403.821225Z" p-id="5766"></path><path d="M50.808629 885.090656C59.57446 891.98755 74.359082 901.898603 93.457074 911.777417 125.833244 928.524631 158.87312 938.666667 191.200647 938.666667 194.159993 938.666667 197.125968 938.490381 200.101743 938.143554 215.160419 936.388463 229.750682 930.546782 246.981287 920.516474 253.290676 916.843642 259.67245 912.800755 268.51965 906.963369 270.933897 905.370447 279.678588 899.563123 279.334447 899.791241 283.686688 896.906313 287.021523 894.717329 290.313331 892.593978 349.341858 854.518165 394.110662 842.971332 458.251198 861.801203 499.945909 874.041609 531.81113 885.915846 562.013282 899.523206 564.427757 900.611029 610.274961 922.482718 622.334739 927.069694 643.349741 935.062818 663.178867 938.666667 689.241841 938.666667 716.338238 938.666665 728.977969 934.064819 791.184625 906.613628 871.129935 871.334541 915.734313 866.539106 969.593022 902.038165 979.430453 908.522161 992.661587 905.803663 999.145581 895.966229 1005.629577 886.128796 1002.911078 872.897664 993.073645 866.413668 923.841726 820.781903 865.884521 827.012905 773.958923 867.578775 719.179394 891.752448 707.512794 895.999998 689.241837 896 668.334466 896 653.646641 893.330558 637.503006 887.190274 627.363543 883.333696 583.439821 862.379616 579.539729 860.62246 547.579132 846.222844 513.877129 833.664147 470.269737 820.862236 392.284911 797.968066 335.65418 812.574345 267.185634 856.739356 203.418324 897.871874 210.013117 894.032902 195.162376 895.763757 193.807429 895.921677 192.489657 896 191.200647 896 166.730635 896 139.899367 887.76378 113.059968 873.88057 103.454075 868.911733 94.55576 863.578065 86.625828 858.262138 81.957097 855.132397 78.730138 852.769342 77.191371 851.558652 67.931764 844.273259 54.519391 845.873675 47.233998 855.133282 39.948604 864.39289 41.549021 877.805263 50.808629 885.090656L50.808629 885.090656Z" p-id="5767"></path><path d="M362.666667 185.139587 362.666667 106.666667 341.333333 128 704 128 682.666667 106.666667 682.666667 192C682.666667 203.782075 692.217926 213.333333 704 213.333333 715.782074 213.333333 725.333333 203.782075 725.333333 192L725.333333 106.666667C725.333333 94.884592 715.782074 85.333333 704 85.333333L341.333333 85.333333C329.55126 85.333333 320 94.884592 320 106.666667L320 185.139587C320 196.921662 329.55126 206.47292 341.333333 206.47292 353.115407 206.47292 362.666667 196.921662 362.666667 185.139587L362.666667 185.139587Z" p-id="5768"></path></svg>